<svg xmlns="http://www.w3.org/2000/svg" width="26" height="24" viewBox="0 0 26 24">
  <defs>
    <style>
      .cls-1 {
        fill: #ef5b70;
        fill-rule: evenodd;
      }
    </style>
  </defs>
  <path id="Forma_1_copy" data-name="Forma 1 copy" class="cls-1" d="M0.961,1.956H3.718L7.645,16.4a0.964,0.964,0,0,0,.93.717H20.644a0.963,0.963,0,0,0,.881-0.587L25.918,6.26a1,1,0,0,0-.08-0.93,0.951,0.951,0,0,0-.8-0.44H11.7a0.978,0.978,0,0,0,0,1.956H23.561L20,15.162H9.3L5.369,0.717A0.964,0.964,0,0,0,4.44,0H0.961A0.973,0.973,0,0,0,0,.978,0.973,0.973,0,0,0,.961,1.956ZM7.661,24a2.218,2.218,0,1,0-2.18-2.218A2.2,2.2,0,0,0,7.661,24Zm13.624,0h0.16a2.162,2.162,0,0,0,1.491-.766,2.236,2.236,0,0,0,.529-1.614A2.178,2.178,0,1,0,21.286,24Z"/>
</svg>
